
<svg version="1.1" id="Layer_1" xmlns="http://www.w3.org/2000/svg" xmlns:xlink="http://www.w3.org/1999/xlink" x="0px" y="0px"
	 width="100%" viewBox="0 0 500 500" enable-background="new 0 0 500 500" xml:space="preserve">
<path fill="#262626" opacity="1.000000" stroke="none" 
	d="
M1.000000,488.000000 
	C1.000000,330.309265 1.000000,172.618515 1.340632,14.425369 
	C4.259036,10.994681 6.717258,7.947791 9.459975,5.183137 
	C11.073125,3.557086 13.138193,2.379367 15.000000,1.000000 
	C172.024078,1.000000 329.048157,1.000000 486.580933,1.347541 
	C490.961090,5.270364 494.819794,8.859644 498.716003,12.407744 
	C499.396423,13.027369 500.234650,13.473650 501.000000,14.000000 
	C501.000000,171.690750 501.000000,329.381500 500.659271,487.574677 
	C496.021057,491.923828 491.713226,495.759186 487.447723,499.640991 
	C487.140594,499.920532 487.142029,500.539062 487.000000,501.000000 
	C329.975922,501.000000 172.951843,501.000000 15.422472,500.656067 
	C10.856182,496.462494 6.808277,492.598846 2.715090,488.783783 
	C2.278871,488.377167 1.578064,488.254425 1.000000,488.000000 
M357.781036,201.993713 
	C366.777985,201.129272 375.774933,200.264847 385.511322,199.329376 
	C370.219421,177.737457 358.529846,153.716248 334.143524,140.190369 
	C331.360321,145.892212 332.939270,151.225372 335.473846,156.077927 
	C337.755066,160.445374 337.882812,164.409210 336.457489,168.976624 
	C335.791840,171.109650 335.800812,174.114761 336.836395,175.988098 
	C339.511383,180.827164 342.840820,185.318710 346.073486,189.831177 
	C349.100128,194.056091 352.337921,198.129761 355.889771,202.850952 
	C360.712494,208.692139 365.535248,214.533325 370.466309,220.505692 
	C369.891327,221.306305 369.389435,222.157684 368.744354,222.881454 
	C340.977386,254.033737 313.171387,285.151337 285.435822,316.331573 
	C277.304565,325.472687 269.368927,334.787811 260.946503,344.615509 
	C253.961639,352.049225 246.976791,359.482971 239.991928,366.916687 
	C240.410553,367.370941 240.829163,367.825165 241.247787,368.279388 
	C249.038132,361.388519 256.828491,354.497620 264.671722,347.559937 
	C263.499359,346.322479 262.672028,345.449249 262.607147,344.917755 
	C267.079773,342.949371 271.552399,340.981018 276.437836,338.830963 
	C275.601288,340.669891 274.923523,342.159760 274.245789,343.649628 
	C274.675354,344.045410 275.104950,344.441223 275.534515,344.837036 
	C296.139740,329.282806 315.352142,312.005585 334.646423,294.864899 
	C353.917603,277.744720 372.826965,260.217346 391.959015,242.810181 
	C415.934448,267.376923 437.753906,293.494141 462.969208,316.461609 
	C462.641846,314.113892 461.650879,312.284973 460.517120,310.549347 
	C443.487946,284.480347 426.479462,258.397583 409.340240,232.401031 
	C407.465179,229.556915 406.637726,227.444672 409.372589,224.628464 
	C410.649780,223.313309 410.931152,221.031052 412.027740,218.271408 
	C412.456085,217.751770 413.537964,216.267990 414.804443,214.963455 
	C415.640289,214.102539 416.694427,213.420700 417.734070,212.797531 
	C419.779846,211.571304 422.205872,210.786301 423.898743,209.203064 
	C427.859100,205.499100 431.172607,201.046677 434.430267,196.829697 
	C449.984741,176.694656 464.847534,156.024078 479.857605,135.471863 
	C481.097229,133.774567 481.599731,131.538879 482.393555,129.673538 
	C476.105530,128.753494 470.773956,127.937996 465.428009,127.230797 
	C464.660095,127.129219 463.692322,127.344925 463.039001,127.761734 
	C458.310028,130.778702 452.900055,133.164795 449.073547,137.085602 
	C430.699188,155.913071 412.752197,175.157761 394.671814,194.271667 
	C393.059113,195.976578 391.578369,197.806305 389.036774,200.726517 
	C393.964233,200.726517 397.280640,200.494659 400.533051,200.849442 
	C401.707428,200.977554 402.851318,202.409348 403.743408,203.469803 
	C404.006866,203.782974 403.402222,205.476273 403.126495,205.494492 
	C399.712494,205.720032 394.730469,207.188019 393.196777,205.526199 
	C390.298309,202.385712 387.364716,203.009949 384.320404,202.976913 
	C376.828674,202.895599 369.333221,203.208084 361.839996,203.178284 
	C360.200806,203.171753 358.564697,202.398605 357.781036,201.993713 
M237.164917,222.023849 
	C260.689117,222.002014 284.213440,222.011902 307.737183,221.895081 
	C309.521332,221.886230 311.300995,220.977463 313.524719,219.942001 
	C321.471069,209.609421 329.417389,199.276855 337.839325,188.325882 
	C290.452545,188.325882 244.025345,188.325882 197.196243,188.325882 
	C197.196243,190.017609 197.196243,191.474319 196.698013,193.308014 
	C196.804047,194.207016 196.910080,195.106018 197.143799,196.934204 
	C197.143799,235.833862 197.143799,274.733521 197.143799,313.388641 
	C210.454971,313.388641 223.089218,313.388641 236.092514,313.388641 
	C236.092514,301.444366 236.170166,289.489899 235.945526,277.541138 
	C235.927490,276.582184 233.946381,275.104492 232.671738,274.832550 
	C229.314590,274.116364 225.818939,274.063599 222.440552,273.420410 
	C221.795471,273.297577 221.434738,271.681152 221.076355,271.005554 
	C224.788696,270.683014 228.036316,271.025726 230.817368,270.045135 
	C240.130890,266.761169 249.697052,267.991699 259.179932,267.858734 
	C269.832581,267.709351 280.591980,266.897400 291.116791,268.066895 
	C303.352173,269.426483 311.401581,265.187988 317.471558,254.792160 
	C320.994934,248.757828 325.917114,243.540237 330.826782,237.152420 
	C310.569244,237.152420 291.480499,237.105316 272.393494,237.264420 
	C271.194183,237.274414 270.008362,238.895309 268.806396,239.772217 
	C265.799103,238.054626 262.970459,234.935623 259.328644,238.862198 
	C258.959015,239.260696 257.469025,238.676514 256.517029,238.466354 
	C254.662964,238.057053 252.836838,237.300659 250.972198,237.203217 
	C246.325897,236.960373 241.664490,237.006424 236.848007,236.543503 
	C236.704224,236.286972 236.498154,236.098557 236.110886,235.058990 
	C236.160828,230.721558 236.210754,226.384140 237.164917,222.023849 
M19.862082,251.438904 
	C20.906607,275.703949 33.292107,292.621796 54.049137,304.059448 
	C77.716934,317.101074 103.503990,313.394958 128.460373,313.891541 
	C128.925766,312.176117 129.246292,310.994690 129.610306,309.652954 
	C132.506424,310.467255 136.643539,308.405396 136.002518,313.921387 
	C142.809662,313.921387 149.327515,313.981598 155.842285,313.866791 
	C157.036133,313.845764 158.679947,313.479584 159.334137,312.653534 
	C167.254379,302.651947 175.027817,292.534149 183.483307,281.615112 
	C180.693619,281.615112 178.909180,281.615143 177.124756,281.615112 
	C150.364868,281.614868 123.599297,281.916687 96.848915,281.412476 
	C89.723389,281.278168 82.263733,279.629974 75.629898,276.988220 
	C64.637039,272.610748 58.726994,263.765259 58.656437,251.677292 
	C58.584862,239.416168 64.595291,230.403183 75.456047,225.555298 
	C81.653503,222.788940 88.831375,221.185059 95.624992,220.983246 
	C115.528343,220.391998 135.460449,220.789337 155.380951,220.710327 
	C156.751160,220.704895 158.642105,220.401947 159.398911,219.493927 
	C163.234894,214.891571 166.870499,210.110550 170.339264,205.223877 
	C171.017151,204.268906 170.647141,202.570099 170.683838,202.130997 
	C176.966202,199.246078 178.888992,193.071243 183.510925,188.346741 
	C181.871109,188.191574 181.251434,188.081787 180.631744,188.081650 
	C151.818924,188.075897 123.005989,188.050491 94.193520,188.152512 
	C92.402107,188.158844 90.622894,189.205429 88.821228,189.707840 
	C87.888702,189.967880 86.755058,190.516418 85.991898,190.218430 
	C77.998901,187.097641 71.214676,192.056091 63.988102,192.459885 
	C64.429634,194.146912 64.653397,195.001892 64.995949,196.310730 
	C60.813332,195.923904 56.135357,192.660294 54.960621,199.213928 
	C40.473476,196.259888 20.090771,226.376419 19.862082,251.438904 
z"/>
<path fill="#000000" opacity="1.000000" stroke="none" 
	d="
M487.474121,501.000000 
	C487.142029,500.539062 487.140594,499.920532 487.447723,499.640991 
	C491.713226,495.759186 496.021057,491.923828 500.659271,488.038574 
	C501.000000,492.260040 501.000000,496.520081 501.000000,501.000000 
	C496.650970,501.000000 492.299591,501.000000 487.474121,501.000000 
z"/>
<path fill="#000000" opacity="1.000000" stroke="none" 
	d="
M1.000000,488.476654 
	C1.578064,488.254425 2.278871,488.377167 2.715090,488.783783 
	C6.808277,492.598846 10.856182,496.462494 14.958588,500.656067 
	C10.413161,501.000000 5.826322,501.000000 1.000000,501.000000 
	C1.000000,496.986389 1.000000,492.969849 1.000000,488.476654 
z"/>
<path fill="#000000" opacity="1.000000" stroke="none" 
	d="
M14.525872,1.000000 
	C13.138193,2.379367 11.073125,3.557086 9.459975,5.183137 
	C6.717258,7.947791 4.259036,10.994681 1.340632,13.961485 
	C1.000000,9.739966 1.000000,5.479933 1.000000,1.000000 
	C5.349030,1.000000 9.700387,1.000000 14.525872,1.000000 
z"/>
<path fill="#000000" opacity="1.000000" stroke="none" 
	d="
M501.000000,13.523338 
	C500.234650,13.473650 499.396423,13.027369 498.716003,12.407744 
	C494.819794,8.859644 490.961090,5.270364 487.044800,1.347541 
	C491.586823,1.000000 496.173676,1.000000 501.000000,1.000000 
	C501.000000,5.013610 501.000000,9.030144 501.000000,13.523338 
z"/>
<path fill="#FBFBFB" opacity="1.000000" stroke="none" 
	d="
M19.854837,250.954620 
	C20.090771,226.376419 40.473476,196.259888 54.960621,199.213928 
	C56.135357,192.660294 60.813332,195.923904 64.995949,196.310730 
	C64.653397,195.001892 64.429634,194.146912 63.988102,192.459885 
	C71.214676,192.056091 77.998901,187.097641 85.991898,190.218430 
	C86.755058,190.516418 87.888702,189.967880 88.821228,189.707840 
	C90.622894,189.205429 92.402107,188.158844 94.193520,188.152512 
	C123.005989,188.050491 151.818924,188.075897 180.631744,188.081650 
	C181.251434,188.081787 181.871109,188.191574 183.510925,188.346741 
	C178.888992,193.071243 176.966202,199.246078 170.683838,202.130997 
	C170.647141,202.570099 171.017151,204.268906 170.339264,205.223877 
	C166.870499,210.110550 163.234894,214.891571 159.398911,219.493927 
	C158.642105,220.401947 156.751160,220.704895 155.380951,220.710327 
	C135.460449,220.789337 115.528343,220.391998 95.624992,220.983246 
	C88.831375,221.185059 81.653503,222.788940 75.456047,225.555298 
	C64.595291,230.403183 58.584862,239.416168 58.656437,251.677292 
	C58.726994,263.765259 64.637039,272.610748 75.629898,276.988220 
	C82.263733,279.629974 89.723389,281.278168 96.848915,281.412476 
	C123.599297,281.916687 150.364868,281.614868 177.124756,281.615112 
	C178.909180,281.615143 180.693619,281.615112 183.483307,281.615112 
	C175.027817,292.534149 167.254379,302.651947 159.334137,312.653534 
	C158.679947,313.479584 157.036133,313.845764 155.842285,313.866791 
	C149.327515,313.981598 142.809662,313.921387 136.002518,313.921387 
	C136.643539,308.405396 132.506424,310.467255 129.610306,309.652954 
	C129.246292,310.994690 128.925766,312.176117 128.460373,313.891541 
	C103.503990,313.394958 77.716934,317.101074 54.049137,304.059448 
	C33.292107,292.621796 20.906607,275.703949 19.854837,250.954620 
M80.663269,306.322327 
	C82.537483,304.538391 84.411697,302.754425 86.285904,300.970490 
	C85.771706,300.369568 85.257500,299.768677 84.743301,299.167755 
	C81.755783,301.363708 78.768265,303.559692 75.780746,305.755676 
	C76.038666,306.173553 76.296585,306.591400 76.554504,307.009277 
	C77.691841,306.878876 78.829178,306.748474 80.663269,306.322327 
M76.572350,195.349594 
	C73.755859,195.127792 70.939369,194.905975 67.661194,194.647812 
	C73.797874,198.022949 80.971992,198.247665 84.169640,194.826599 
	C81.595894,195.024933 79.541290,195.183258 76.572350,195.349594 
M69.198723,216.014343 
	C70.133125,215.770035 71.067528,215.525711 72.001930,215.281403 
	C71.974632,214.760437 71.947327,214.239487 71.920029,213.718521 
	C67.876244,213.439087 63.832466,213.159653 59.788689,212.880219 
	C59.723000,213.553543 59.657310,214.226852 59.591621,214.900177 
	C62.502197,215.280151 65.412773,215.660126 69.198723,216.014343 
M101.435318,293.126343 
	C102.638573,292.238342 103.841835,291.350342 105.045097,290.462372 
	C104.756866,289.969940 104.468643,289.477539 104.180412,288.985107 
	C100.825523,290.522095 97.470634,292.059052 94.115738,293.596008 
	C94.314743,294.094635 94.513748,294.593231 94.712753,295.091858 
	C96.733665,294.536682 98.754578,293.981506 101.435318,293.126343 
z"/>
<path fill="#FAFAFA" opacity="1.000000" stroke="none" 
	d="
M197.196243,192.931015 
	C197.196243,191.474319 197.196243,190.017609 197.196243,188.325882 
	C244.025345,188.325882 290.452545,188.325882 337.839325,188.325882 
	C329.417389,199.276855 321.471069,209.609421 312.832214,220.268036 
	C287.920074,220.594086 263.700500,220.594086 238.001221,220.594086 
	C240.568527,218.482056 241.841888,217.434525 243.428101,216.129608 
	C239.654343,215.698608 236.469025,215.334824 233.283722,214.971024 
	C233.150787,215.244690 233.017838,215.518341 232.884903,215.792007 
	C234.647339,217.074921 236.409790,218.357849 238.167175,219.638306 
	C237.528320,220.439468 236.894501,221.243088 236.260681,222.046722 
	C236.210754,226.384140 236.160828,230.721558 236.106567,235.796280 
	C236.404541,236.667877 236.706848,236.802200 237.009155,236.936508 
	C241.664490,237.006424 246.325897,236.960373 250.972198,237.203217 
	C252.836838,237.300659 254.662964,238.057053 256.517029,238.466354 
	C257.469025,238.676514 258.959015,239.260696 259.328644,238.862198 
	C262.970459,234.935623 265.799103,238.054626 268.811340,239.769485 
	C270.008362,238.895309 271.194183,237.274414 272.393494,237.264420 
	C291.480499,237.105316 310.569244,237.152420 330.826782,237.152420 
	C325.917114,243.540237 320.994934,248.757828 317.471558,254.792160 
	C311.401581,265.187988 303.352173,269.426483 291.116791,268.066895 
	C280.591980,266.897400 269.832581,267.709351 259.179932,267.858734 
	C249.697052,267.991699 240.130890,266.761169 230.817368,270.045135 
	C228.036316,271.025726 224.788696,270.683014 221.076355,271.005554 
	C221.434738,271.681152 221.795471,273.297577 222.440552,273.420410 
	C225.818939,274.063599 229.314590,274.116364 232.671738,274.832550 
	C233.946381,275.104492 235.927490,276.582184 235.945526,277.541138 
	C236.170166,289.489899 236.092514,301.444366 236.092514,313.388641 
	C223.089218,313.388641 210.454971,313.388641 197.143799,313.388641 
	C197.143799,274.733521 197.143799,235.833862 197.479980,196.418701 
	C200.138397,196.202164 202.460648,196.501114 204.782883,196.800079 
	C204.871552,196.152237 204.960220,195.504395 205.048904,194.856552 
	C202.431351,194.214706 199.813797,193.572861 197.196243,192.931015 
M292.485901,253.427567 
	C291.689056,248.398636 286.130615,246.247543 280.930634,249.326721 
	C284.386688,254.571136 289.568573,256.347198 296.380676,257.973419 
	C294.631744,255.985550 293.772522,255.008942 292.485901,253.427567 
M240.320892,255.498260 
	C235.858063,257.280853 231.395233,259.063446 226.932404,260.846039 
	C231.890213,262.319489 239.084778,259.016663 240.320892,255.498260 
M291.598206,207.477631 
	C291.604980,206.729263 291.611755,205.980911 291.618530,205.232544 
	C289.156311,205.699585 286.694122,206.166626 284.231903,206.633667 
	C284.351257,207.413376 284.470612,208.193085 284.589966,208.972794 
	C286.733459,208.628448 288.876984,208.284103 291.598206,207.477631 
M278.723938,243.828064 
	C276.522003,242.660904 274.320068,241.493744 270.940918,239.702591 
	C273.594543,246.367355 276.014587,247.440125 278.723938,243.828064 
M271.179260,239.015289 
	C270.517853,239.077835 269.856445,239.140396 269.195038,239.202957 
	C270.049774,240.105530 270.904541,241.008102 271.759308,241.910675 
	C271.857178,241.255356 271.955048,240.600037 271.179260,239.015289 
z"/>
<path fill="#DB1208" opacity="1.000000" stroke="none" 
	d="
M261.343658,344.023193 
	C269.368927,334.787811 277.304565,325.472687 285.435822,316.331573 
	C313.171387,285.151337 340.977386,254.033737 368.744354,222.881454 
	C369.389435,222.157684 369.891327,221.306305 370.466309,220.505692 
	C365.535248,214.533325 360.712494,208.692139 356.047058,202.472809 
	C356.445312,202.055969 356.686218,202.017242 356.927155,201.978516 
	C358.564697,202.398605 360.200806,203.171753 361.839996,203.178284 
	C369.333221,203.208084 376.828674,202.895599 384.320404,202.976913 
	C387.364716,203.009949 390.298309,202.385712 393.196777,205.526199 
	C394.730469,207.188019 399.712494,205.720032 403.126495,205.494492 
	C403.402222,205.476273 404.006866,203.782974 403.743408,203.469803 
	C402.851318,202.409348 401.707428,200.977554 400.533051,200.849442 
	C397.280640,200.494659 393.964233,200.726517 389.036774,200.726517 
	C391.578369,197.806305 393.059113,195.976578 394.671814,194.271667 
	C412.752197,175.157761 430.699188,155.913071 449.073547,137.085602 
	C452.900055,133.164795 458.310028,130.778702 463.039001,127.761734 
	C463.692322,127.344925 464.660095,127.129219 465.428009,127.230797 
	C470.773956,127.937996 476.105530,128.753494 482.393555,129.673538 
	C481.599731,131.538879 481.097229,133.774567 479.857605,135.471863 
	C464.847534,156.024078 449.984741,176.694656 434.430267,196.829697 
	C431.172607,201.046677 427.859100,205.499100 423.898743,209.203064 
	C422.205872,210.786301 419.779846,211.571304 417.734070,212.797531 
	C416.694427,213.420700 415.640289,214.102539 414.804443,214.963455 
	C413.537964,216.267990 412.456085,217.751770 412.027740,218.271408 
	C410.931152,221.031052 410.649780,223.313309 409.372589,224.628464 
	C406.637726,227.444672 407.465179,229.556915 409.340240,232.401031 
	C426.479462,258.397583 443.487946,284.480347 460.517120,310.549347 
	C461.650879,312.284973 462.641846,314.113892 462.969208,316.461609 
	C437.753906,293.494141 415.934448,267.376923 391.959015,242.810181 
	C372.826965,260.217346 353.917603,277.744720 334.646423,294.864899 
	C315.352142,312.005585 296.139740,329.282806 275.534515,344.837036 
	C275.104950,344.441223 274.675354,344.045410 274.245789,343.649628 
	C274.923523,342.159760 275.601288,340.669891 276.437836,338.830963 
	C271.552399,340.981018 267.079773,342.949371 262.178894,344.628479 
	C261.645874,344.194122 261.510193,344.088806 261.343658,344.023193 
z"/>
<path fill="#DC1208" opacity="1.000000" stroke="none" 
	d="
M357.354095,201.986115 
	C356.686218,202.017242 356.445312,202.055969 355.843597,202.182343 
	C352.337921,198.129761 349.100128,194.056091 346.073486,189.831177 
	C342.840820,185.318710 339.511383,180.827164 336.836395,175.988098 
	C335.800812,174.114761 335.791840,171.109650 336.457489,168.976624 
	C337.882812,164.409210 337.755066,160.445374 335.473846,156.077927 
	C332.939270,151.225372 331.360321,145.892212 334.143524,140.190369 
	C358.529846,153.716248 370.219421,177.737457 385.511322,199.329376 
	C375.774933,200.264847 366.777985,201.129272 357.354095,201.986115 
z"/>
<path fill="#464646" opacity="1.000000" stroke="none" 
	d="
M236.712799,222.035278 
	C236.894501,221.243088 237.528320,220.439468 238.167175,219.638306 
	C236.409790,218.357849 234.647339,217.074921 232.884903,215.792007 
	C233.017838,215.518341 233.150787,215.244690 233.283722,214.971024 
	C236.469025,215.334824 239.654343,215.698608 243.428101,216.129608 
	C241.841888,217.434525 240.568527,218.482056 238.001221,220.594086 
	C263.700500,220.594086 287.920074,220.594086 312.611206,220.540543 
	C311.300995,220.977463 309.521332,221.886230 307.737183,221.895081 
	C284.213440,222.011902 260.689117,222.002014 236.712799,222.035278 
z"/>
<path fill="#C5150B" opacity="1.000000" stroke="none" 
	d="
M261.145081,344.319336 
	C261.510193,344.088806 261.645874,344.194122 261.797668,344.457581 
	C262.672028,345.449249 263.499359,346.322479 264.671722,347.559937 
	C256.828491,354.497620 249.038132,361.388519 241.247787,368.279388 
	C240.829163,367.825165 240.410553,367.370941 239.991928,366.916687 
	C246.976791,359.482971 253.961639,352.049225 261.145081,344.319336 
z"/>
<path fill="#404040" opacity="1.000000" stroke="none" 
	d="
M196.947128,193.119507 
	C199.813797,193.572861 202.431351,194.214706 205.048904,194.856552 
	C204.960220,195.504395 204.871552,196.152237 204.782883,196.800079 
	C202.460648,196.501114 200.138397,196.202164 197.416138,195.954117 
	C196.910080,195.106018 196.804047,194.207016 196.947128,193.119507 
z"/>
<path fill="#464646" opacity="1.000000" stroke="none" 
	d="
M236.928589,236.740005 
	C236.706848,236.802200 236.404541,236.667877 236.166016,236.255920 
	C236.498154,236.098557 236.704224,236.286972 236.928589,236.740005 
z"/>
<path fill="#404040" opacity="1.000000" stroke="none" 
	d="
M80.314896,306.470215 
	C78.829178,306.748474 77.691841,306.878876 76.554504,307.009277 
	C76.296585,306.591400 76.038666,306.173553 75.780746,305.755676 
	C78.768265,303.559692 81.755783,301.363708 84.743301,299.167755 
	C85.257500,299.768677 85.771706,300.369568 86.285904,300.970490 
	C84.411697,302.754425 82.537483,304.538391 80.314896,306.470215 
z"/>
<path fill="#727272" opacity="1.000000" stroke="none" 
	d="
M77.029510,195.345581 
	C79.541290,195.183258 81.595894,195.024933 84.169640,194.826599 
	C80.971992,198.247665 73.797874,198.022949 67.661194,194.647812 
	C70.939369,194.905975 73.755859,195.127792 77.029510,195.345581 
z"/>
<path fill="#474646" opacity="1.000000" stroke="none" 
	d="
M68.761032,216.027222 
	C65.412773,215.660126 62.502197,215.280151 59.591621,214.900177 
	C59.657310,214.226852 59.723000,213.553543 59.788689,212.880219 
	C63.832466,213.159653 67.876244,213.439087 71.920029,213.718521 
	C71.947327,214.239487 71.974632,214.760437 72.001930,215.281403 
	C71.067528,215.525711 70.133125,215.770035 68.761032,216.027222 
z"/>
<path fill="#525252" opacity="1.000000" stroke="none" 
	d="
M101.105408,293.276337 
	C98.754578,293.981506 96.733665,294.536682 94.712753,295.091858 
	C94.513748,294.593231 94.314743,294.094635 94.115738,293.596008 
	C97.470634,292.059052 100.825523,290.522095 104.180412,288.985107 
	C104.468643,289.477539 104.756866,289.969940 105.045097,290.462372 
	C103.841835,291.350342 102.638573,292.238342 101.105408,293.276337 
z"/>
<path fill="#3A3A3A" opacity="1.000000" stroke="none" 
	d="
M292.699585,253.729950 
	C293.772522,255.008942 294.631744,255.985550 296.380676,257.973419 
	C289.568573,256.347198 284.386688,254.571136 280.930634,249.326721 
	C286.130615,246.247543 291.689056,248.398636 292.699585,253.729950 
z"/>
<path fill="#5A5A5A" opacity="1.000000" stroke="none" 
	d="
M240.648651,255.428665 
	C239.084778,259.016663 231.890213,262.319489 226.932404,260.846039 
	C231.395233,259.063446 235.858063,257.280853 240.648651,255.428665 
z"/>
<path fill="#555454" opacity="1.000000" stroke="none" 
	d="
M291.309326,207.708679 
	C288.876984,208.284103 286.733459,208.628448 284.589966,208.972794 
	C284.470612,208.193085 284.351257,207.413376 284.231903,206.633667 
	C286.694122,206.166626 289.156311,205.699585 291.618530,205.232544 
	C291.611755,205.980911 291.604980,206.729263 291.309326,207.708679 
z"/>
<path fill="#262626" opacity="1.000000" stroke="none" 
	d="
M278.875397,244.244720 
	C276.014587,247.440125 273.594543,246.367355 270.940918,239.702591 
	C274.320068,241.493744 276.522003,242.660904 278.875397,244.244720 
z"/>
<path fill="#262626" opacity="1.000000" stroke="none" 
	d="
M271.616089,239.480011 
	C271.955048,240.600037 271.857178,241.255356 271.759277,241.910675 
	C270.904541,241.008102 270.049774,240.105530 269.195038,239.202957 
	C269.856445,239.140396 270.517853,239.077835 271.616089,239.480011 
z"/>
</svg>
